<svg version="1.1" id="Layer_1" xmlns="http://www.w3.org/2000/svg" xmlns:xlink="http://www.w3.org/1999/xlink" x="0px" y="0px"
	 width="100%" viewBox="0 0 386 172" enable-background="new 0 0 386 172" xml:space="preserve">
<path fill="#130D0D" opacity="1.000000" stroke="none" 
	d="
M264.000000,173.000000 
	C176.000015,173.000000 88.500038,173.000000 1.000047,173.000000 
	C1.000031,115.666702 1.000031,58.333401 1.000016,1.000078 
	C129.666611,1.000052 258.333221,1.000052 386.999878,1.000026 
	C386.999908,58.333252 386.999908,115.666504 386.999939,172.999878 
	C346.166656,173.000000 305.333344,173.000000 264.000000,173.000000 
M178.146698,96.387909 
	C179.737350,100.752647 181.208939,105.167282 183.002106,109.447174 
	C183.452377,110.521873 184.893616,111.825027 185.949432,111.890244 
	C190.368912,112.163208 194.814987,112.005348 199.305222,112.005348 
	C203.710266,94.313461 207.977737,77.174141 212.334671,59.675484 
	C208.081940,59.675484 204.581467,59.838417 201.104416,59.623108 
	C198.399689,59.455627 197.398087,60.437939 196.834824,63.095921 
	C195.114334,71.214645 193.056519,79.262291 191.094391,87.328934 
	C190.823074,88.444359 190.351196,89.511002 189.983124,90.568764 
	C186.642578,80.999550 183.493683,71.741714 180.108231,62.571198 
	C179.667145,61.376354 178.001007,59.810226 176.915573,59.820477 
	C172.410263,59.863052 167.909302,60.436718 163.411606,60.866207 
	C163.283798,60.878410 163.193817,61.456562 163.114105,61.777744 
	C158.999390,78.357346 154.887680,94.937691 150.733978,111.686020 
	C155.790955,111.686020 160.506317,111.686020 165.418579,111.686020 
	C167.889221,101.385429 170.298752,91.339706 172.988586,80.125290 
	C174.887939,86.056587 176.419815,90.840279 178.146698,96.387909 
M276.417267,80.997864 
	C280.939941,77.425407 283.388855,72.945961 282.076630,67.070427 
	C281.094513,62.673222 277.410461,60.598553 273.632050,60.417633 
	C263.907776,59.952023 254.146378,60.261906 244.290726,60.261906 
	C240.015518,77.408058 235.759491,94.477295 231.450653,111.758308 
	C241.200653,111.758308 250.530426,112.180176 259.800751,111.619354 
	C266.708771,111.201454 272.531647,107.827400 276.203400,101.606522 
	C280.803314,93.813026 278.587067,87.594116 269.987061,84.397743 
	C272.023163,83.361404 273.923370,82.394257 276.417267,80.997864 
M122.932274,84.261612 
	C120.643555,93.384552 118.354836,102.507500 116.006897,111.866501 
	C120.921661,111.866501 125.386513,111.866501 130.212036,111.866501 
	C134.524155,94.631447 138.824478,77.443504 143.128632,60.240288 
	C126.835060,56.837112 110.831688,66.475021 113.476143,78.786751 
	C117.341209,76.652756 121.180054,74.533234 125.900467,71.926987 
	C124.788818,76.435127 123.925079,79.937927 122.932274,84.261612 
M222.969452,76.028870 
	C220.003159,87.895988 217.036850,99.763100 214.011765,111.865433 
	C218.916412,111.865433 223.381760,111.865433 228.211227,111.865433 
	C232.522034,94.639053 236.822861,77.452583 241.127121,60.252434 
	C224.986786,56.827305 208.877487,66.358215 211.455551,78.814598 
	C215.330627,76.659683 219.170822,74.524170 223.677094,72.018257 
	C223.389847,73.613174 223.251373,74.382095 222.969452,76.028870 
M160.264297,60.639702 
	C155.667587,60.209778 151.070862,59.779858 146.504349,59.352760 
	C142.014435,77.402412 137.759796,94.506271 133.456558,111.805450 
	C138.622498,111.805450 143.073181,111.805450 147.674866,111.805450 
	C151.854813,94.933418 155.996338,78.216469 160.264297,60.639702 
z"/>
<path fill="#F5F6F8" opacity="1.000000" stroke="none" 
	d="
M178.049194,96.005936 
	C176.419815,90.840279 174.887939,86.056587 172.988586,80.125290 
	C170.298752,91.339706 167.889221,101.385429 165.418579,111.686020 
	C160.506317,111.686020 155.790955,111.686020 150.733978,111.686020 
	C154.887680,94.937691 158.999390,78.357346 163.114105,61.777744 
	C163.193817,61.456562 163.283798,60.878410 163.411606,60.866207 
	C167.909302,60.436718 172.410263,59.863052 176.915573,59.820477 
	C178.001007,59.810226 179.667145,61.376354 180.108231,62.571198 
	C183.493683,71.741714 186.642578,80.999550 189.983124,90.568764 
	C190.351196,89.511002 190.823074,88.444359 191.094391,87.328934 
	C193.056519,79.262291 195.114334,71.214645 196.834824,63.095921 
	C197.398087,60.437939 198.399689,59.455627 201.104416,59.623108 
	C204.581467,59.838417 208.081940,59.675484 212.334671,59.675484 
	C207.977737,77.174141 203.710266,94.313461 199.305222,112.005348 
	C194.814987,112.005348 190.368912,112.163208 185.949432,111.890244 
	C184.893616,111.825027 183.452377,110.521873 183.002106,109.447174 
	C181.208939,105.167282 179.737350,100.752647 178.049194,96.005936 
z"/>
<path fill="#F5F6F8" opacity="1.000000" stroke="none" 
	d="
M276.120422,81.212479 
	C273.923370,82.394257 272.023163,83.361404 269.987061,84.397743 
	C278.587067,87.594116 280.803314,93.813026 276.203400,101.606522 
	C272.531647,107.827400 266.708771,111.201454 259.800751,111.619354 
	C250.530426,112.180176 241.200653,111.758308 231.450653,111.758308 
	C235.759491,94.477295 240.015518,77.408058 244.290726,60.261906 
	C254.146378,60.261906 263.907776,59.952023 273.632050,60.417633 
	C277.410461,60.598553 281.094513,62.673222 282.076630,67.070427 
	C283.388855,72.945961 280.939941,77.425407 276.120422,81.212479 
M253.383362,100.785851 
	C255.500748,100.458092 258.105896,100.776268 259.611969,99.638992 
	C261.492065,98.219261 263.213013,95.695740 263.497009,93.457710 
	C263.625916,92.442116 260.285156,90.457062 258.238617,89.841133 
	C256.127655,89.205833 253.676773,89.699974 251.128052,89.699974 
	C250.274139,93.315796 249.452545,96.794769 248.570129,100.531281 
	C250.235260,100.639099 251.372559,100.712738 253.383362,100.785851 
M262.986145,70.958916 
	C260.687805,70.958916 258.389465,70.958916 255.751709,70.958916 
	C255.024200,74.261116 254.339767,77.367844 253.474243,81.296539 
	C257.273926,80.748665 260.352753,80.799744 263.045898,79.805786 
	C267.617981,78.118355 267.845795,73.885521 262.986145,70.958916 
z"/>
<path fill="#F4F5F7" opacity="1.000000" stroke="none" 
	d="
M122.996811,83.851173 
	C123.925079,79.937927 124.788818,76.435127 125.900467,71.926987 
	C121.180054,74.533234 117.341209,76.652756 113.476143,78.786751 
	C110.831688,66.475021 126.835060,56.837112 143.128632,60.240288 
	C138.824478,77.443504 134.524155,94.631447 130.212036,111.866501 
	C125.386513,111.866501 120.921661,111.866501 116.006897,111.866501 
	C118.354836,102.507500 120.643555,93.384552 122.996811,83.851173 
z"/>
<path fill="#F4F5F7" opacity="1.000000" stroke="none" 
	d="
M223.041168,75.589943 
	C223.251373,74.382095 223.389847,73.613174 223.677094,72.018257 
	C219.170822,74.524170 215.330627,76.659683 211.455551,78.814598 
	C208.877487,66.358215 224.986786,56.827305 241.127121,60.252434 
	C236.822861,77.452583 232.522034,94.639053 228.211227,111.865433 
	C223.381760,111.865433 218.916412,111.865433 214.011765,111.865433 
	C217.036850,99.763100 220.003159,87.895988 223.041168,75.589943 
z"/>
<path fill="#F4F5F7" opacity="1.000000" stroke="none" 
	d="
M160.201080,61.069614 
	C155.996338,78.216469 151.854813,94.933418 147.674866,111.805450 
	C143.073181,111.805450 138.622498,111.805450 133.456558,111.805450 
	C137.759796,94.506271 142.014435,77.402412 146.504349,59.352760 
	C151.070862,59.779858 155.667587,60.209778 160.201080,61.069614 
z"/>
<path fill="#1E1818" opacity="1.000000" stroke="none" 
	d="
M252.946609,100.786118 
	C251.372559,100.712738 250.235260,100.639099 248.570129,100.531281 
	C249.452545,96.794769 250.274139,93.315796 251.128052,89.699974 
	C253.676773,89.699974 256.127655,89.205833 258.238617,89.841133 
	C260.285156,90.457062 263.625916,92.442116 263.497009,93.457710 
	C263.213013,95.695740 261.492065,98.219261 259.611969,99.638992 
	C258.105896,100.776268 255.500748,100.458092 252.946609,100.786118 
z"/>
<path fill="#1D1716" opacity="1.000000" stroke="none" 
	d="
M263.404785,71.006729 
	C267.845795,73.885521 267.617981,78.118355 263.045898,79.805786 
	C260.352753,80.799744 257.273926,80.748665 253.474243,81.296539 
	C254.339767,77.367844 255.024200,74.261116 255.751709,70.958916 
	C258.389465,70.958916 260.687805,70.958916 263.404785,71.006729 
z"/>
</svg>